<?xml version="1.0" standalone="no"?><!DOCTYPE svg PUBLIC "-//W3C//DTD SVG 1.1//EN" "http://www.w3.org/Graphics/SVG/1.1/DTD/svg11.dtd"><svg class="icon" height="512" viewBox="0 0 1024 1024" version="1.1" xmlns="http://www.w3.org/2000/svg"><path d="M323.063 473.824c0.165 0.207 0.393 0.434 0.559 0.641l86.367 86.389 30.128-30.127L407.61 498.2l-14.732-14.713 75.339-75.338 9.974 1.076c2.545 0.289 5.173 0.412 7.738 0.412 5.173 0 10.284-0.619 15.229-1.695l-55.454-55.496c-1.159-1.139-2.318-2.131-3.518-3.188 17.092-61.475 1.49-130.109-46.785-178.467-48.004-48.004-116.019-63.668-177.184-47.178L321.82 227.176 294.652 328.65l-101.494 27.188L89.555 252.275c-16.492 61.125-0.766 129.139 47.197 177.102 50.344 50.406 122.91 65.201 186.311 44.447z m306.052 62.014a67.51 67.51 0 0 0-1.283 23.029l1.076 9.932-7.056 7.057-53.592 53.592-14.712 14.713-47.239-47.24-30.128 30.127L749.562 900.47c16.906 16.844 39.046 25.287 61.083 25.287 22.099 0 44.198-8.443 60.999-25.287 33.749-33.686 33.749-88.354 0-122.039L629.115 535.838z m211.058 336.305l-43.37 11.629-35.156-35.219 11.65-43.328 43.328-11.629 35.156 35.176-11.608 43.371zM506.619 567.826l47.281 47.24 53.551-53.592c-2.876-26.154 5.629-53.281 25.658-73.332 19.988-20.029 47.156-28.533 73.353-25.637l234.314-234.314L809.527 96.963 575.213 331.256c2.877 26.113-5.628 53.303-25.658 73.332-20.029 20.051-47.156 28.535-73.373 25.658l-53.529 53.572 47.239 47.219-231.563 231.5-8.463-8.463-44.405 35.818-74.801 118.047 19.099 19.098 118.089-74.76 35.714-44.445-8.422-8.484 231.479-231.522z" fill="#0081FE" /></svg>